<svg id="Layer_1" data-name="Layer 1" xmlns="http://www.w3.org/2000/svg" xmlns:xlink="http://www.w3.org/1999/xlink" viewBox="0 0 1563 800"><defs><style>.cls-1{fill:url(#linear-gradient);}</style><linearGradient id="linear-gradient" x1="357" y1="404" x2="1920" y2="404" gradientUnits="userSpaceOnUse"><stop offset="0.05" stop-color="#830094"/><stop offset="0.48" stop-color="#870094"/><stop offset="0.68" stop-color="#630072"/><stop offset="0.94" stop-color="#2d003f"/></linearGradient></defs><title>2</title><path class="cls-1" d="M1920,4V804c-173.08,0-313.41-79.88-313.41-178.42a105.51,105.51,0,0,1,.65-11.68c-82.18,57.33-201.49,93.41-334.28,93.41-79.26,0-153.73-12.86-218.37-35.42C917.07,623.89,824.08,532,824.08,426.45A178.31,178.31,0,0,1,827,394.22a195.32,195.32,0,0,1,21.17-58.81c-50.06,19-110.14,30-174.74,30C498.68,365.44,357,284.53,357,184.72S498.68,4,673.44,4Z" transform="translate(-357 -4)"/></svg>