<svg id="Layer_1" data-name="Layer 1" xmlns="http://www.w3.org/2000/svg" xmlns:xlink="http://www.w3.org/1999/xlink" viewBox="0 0 1920 705"><defs><style>.cls-1{fill:url(#linear-gradient);}.cls-2{fill:url(#radial-gradient);}</style><linearGradient id="linear-gradient" x1="-14.96" y1="619.83" x2="1905.77" y2="1132.33" gradientUnits="userSpaceOnUse"><stop offset="0" stop-color="#6156f9"/><stop offset="1" stop-color="#1a129f"/></linearGradient><radialGradient id="radial-gradient" cx="960" cy="727.5" r="723.14" xlink:href="#linear-gradient"/></defs><title>footer</title><path class="cls-1" d="M1920,681v398H0V563.75a998.68,998.68,0,0,0,157.15-78.91c94.68-58.32,179.6-82.48,259.51-83.78q3.46-.06,6.93-.06t6.71.06c370.78,5.88,637.92,497,1286.35,324.08C1792.88,704.78,1860.34,690.33,1920,681Z" transform="translate(0 -375)"/><path class="cls-2" d="M1920,605.46V1080H0V786.14C524.75,728.48,823.56,375.34,1210.49,375h.47c108.12,0,223.11,27.51,351.84,96.74C1685.15,537.54,1804.73,579.13,1920,605.46Z" transform="translate(0 -375)"/></svg>