<svg xmlns="http://www.w3.org/2000/svg" viewBox="0 0 1920.5 841"><defs><style>.cls-1{fill:#1b1464;}.cls-2{fill:#2e3192;}</style></defs><title>footer-2</title><g id="Layer_2" data-name="Layer 2"><path class="cls-1" d="M1920,1080H0V711.48c35.28-21.33,81.6-18.74,153.6-65.34,44.61-28.86,62.41-51.85,112.64-95.95,40.84-35.86,76.72-61.34,148.48-112.3C578.37,321.68,660.19,263.58,732.16,254.14a373.17,373.17,0,0,1,40.73-3.06c5.32-.11,10.57-.1,15.76,0,87.36,1.78,153.76,32.53,168.79,39.81,79.49,38.51,112.14,94.35,148.48,142.92,28.43,38,119.64,111.77,302.08,259.29C1528.61,790.63,1699.43,923.55,1920,1080Z" transform="translate(0 -239)"/></g><g id="Layer_3" data-name="Layer 3"><path class="cls-2" d="M1920.5,493.15V1079.5H269.5C416.56,787.18,531,659.75,612,599c12.18-9.14,36.38-26.37,72-55.39,79.66-64.88,154-125.4,232-213.34,0,0,77.38-87.2,131.57-90.78a265.59,265.59,0,0,1,30.24,0q9.69.63,19,2.05c55,8.35,56.49,29.68,178.26,86.16C1590.12,473.8,1791.74,429.2,1920.5,493.15Z" transform="translate(0 -239)"/></g></svg>