<svg xmlns="http://www.w3.org/2000/svg" viewBox="0 0 1921 779.49"><defs><style>.cls-1{fill:#1b1464;}.cls-1,.cls-2{stroke:#000;stroke-miterlimit:10;}.cls-2{fill:#2e3192;}</style></defs><title>footer-1</title><g id="Layer_1" data-name="Layer 1"><path class="cls-1" d="M0,1079.5c290-54.8,438.9-199.94,521.6-327.33,23.11-35.6,78.89-136.84,171.87-250.6C801.15,369.84,855,304,925.3,301.1c97.39-4,119.93,110.44,276.79,192.64,17.14,9,50.45,25.22,206.84,54.82,334.43,63.3,481.23,45.69,509.61,159.75,2.83,11.38.81,9.27,0,175.42-.4,82.89-.22,150.8,0,195.77" transform="translate(0.5 -300.5)"/><path class="cls-2" d="M1025.5,432.5" transform="translate(0.5 -300.5)"/><path class="cls-2" d="M1523.5,364.5" transform="translate(0.5 -300.5)"/></g><g id="Layer_2" data-name="Layer 2"><path class="cls-2" d="M1585.5,1079.5c-228.69-127.8-386.74-244.39-491.74-330.69-23.48-19.3-63.63-53-118.76-94.15-105.78-79-97.7-58.15-173.09-117.8C754.82,499.6,709.7,458.5,663.5,449.18A250.29,250.29,0,0,1,622,437.27c-33.63-12.79-54.75-28.72-59.5-32.38-20.31-15.63-23.58-23.92-37-35.43-32.17-27.58-66.17-25.17-88-23.62-89.48,6.36-137.57,147.29-288,242.1,0,0-143.56,90.47-149.17,153.21-.08.84-.15,1.68-.15,1.68-.41,5.93,0,18.27.15,166.86,0,38.45.17,94.59,0,169.81" transform="translate(0.5 -300.5)"/></g></svg>