<svg id="Layer_1" data-name="Layer 1" xmlns="http://www.w3.org/2000/svg" xmlns:xlink="http://www.w3.org/1999/xlink" viewBox="0 0 1920 576.53"><defs><style>.cls-1{fill:url(#linear-gradient);}.cls-2{fill:url(#radial-gradient);}</style><linearGradient id="linear-gradient" x1="23.54" y1="-466.15" x2="1893.88" y2="32.9" gradientTransform="matrix(1, 0, 0, -1, -0.93, 696.42)" gradientUnits="userSpaceOnUse"><stop offset="0" stop-color="#6156f9"/><stop offset="1" stop-color="#1a129f"/></linearGradient><radialGradient id="radial-gradient" cx="438.68" cy="-193.4" r="326.19" gradientTransform="matrix(2.19, 0, 0, -2.02, -2.24, 401.32)" xlink:href="#linear-gradient"/></defs><title>footer-shape</title><path class="cls-1" d="M1920,764.89v314.16H.33V745.76c154.75-6.27,353,19.5,566.63-120.7C636.79,579.22,699.22,561,758,561c268.3,0,459.3,380.6,926.92,247.68C1781.68,781.12,1858.77,767.73,1920,764.89Z" transform="translate(0 -503)"/><path class="cls-2" d="M0,730.76l.59,348.77L1920,1077.31l-.55-370.07c-154.75-6.8-353,22-566.77-133.34-69.93-50.81-132.38-70.95-191.1-70.9-268.26.31-458.44,423.06-926.26,276.06C138.34,748.59,61.24,733.84,0,730.76Z" transform="translate(0 -503)"/></svg>