<svg id="Layer_1" data-name="Layer 1" xmlns="http://www.w3.org/2000/svg" xmlns:xlink="http://www.w3.org/1999/xlink" viewBox="0 0 365.56 132.5"><defs><style>.cls-1,.cls-2{isolation:isolate;}.cls-2{font-size:53.9px;fill:#484848;font-family:SegoeUI-Bold, Segoe UI;font-weight:700;}.cls-3{letter-spacing:-0.01em;}.cls-4{fill:url(#linear-gradient);}.cls-5{fill:url(#linear-gradient-2);}.cls-6{fill:url(#linear-gradient-3);}.cls-7{fill:url(#linear-gradient-4);}.cls-8{fill:url(#linear-gradient-5);}.cls-9{fill:url(#linear-gradient-6);}.cls-10{fill:url(#linear-gradient-7);}.cls-11{fill:url(#linear-gradient-8);}.cls-12{fill:url(#linear-gradient-9);}.cls-13{fill:url(#linear-gradient-10);}.cls-14{fill:url(#linear-gradient-11);}.cls-15{fill:url(#linear-gradient-12);}.cls-16{fill:url(#linear-gradient-13);}</style><linearGradient id="linear-gradient" x1="4.39" y1="1035.16" x2="3.61" y2="1035.16" gradientTransform="matrix(82.01, 0, 0, -6.33, 483.49, 7170.85)" gradientUnits="userSpaceOnUse"><stop offset="0" stop-color="#6156f9"/><stop offset="1" stop-color="#1a129f"/></linearGradient><linearGradient id="linear-gradient-2" x1="42.67" y1="1034.41" x2="41.89" y2="1034.41" gradientTransform="matrix(4.33, 0, 0, -5.55, 606.97, 6238.3)" xlink:href="#linear-gradient"/><linearGradient id="linear-gradient-3" x1="5.23" y1="1072.76" x2="4.45" y2="1072.76" gradientTransform="matrix(58.74, 0, 0, -36, 518.45, 39206.31)" xlink:href="#linear-gradient"/><linearGradient id="linear-gradient-4" x1="7.32" y1="1073.01" x2="6.54" y2="1073.01" gradientTransform="matrix(34.9, 0, 0, -35.53, 564.77, 38657.07)" xlink:href="#linear-gradient"/><linearGradient id="linear-gradient-5" x1="9.42" y1="1068.95" x2="8.64" y2="1068.95" gradientTransform="matrix(23.93, 0, 0, -23.63, 561.77, 25822)" xlink:href="#linear-gradient"/><linearGradient id="linear-gradient-6" x1="11.71" y1="1073.95" x2="10.93" y2="1073.95" gradientTransform="matrix(17.61, 0, 0, -42.38, 553.02, 46096)" xlink:href="#linear-gradient"/><linearGradient id="linear-gradient-7" x1="14" y1="1074.01" x2="13.22" y2="1074.01" gradientTransform="matrix(15.4, 0, 0, -42.74, 611.69, 46482.21)" xlink:href="#linear-gradient"/><linearGradient id="linear-gradient-8" x1="12.17" y1="1063.83" x2="11.39" y2="1063.83" gradientTransform="matrix(17.7, 0, 0, -16.66, 586.88, 18306.6)" xlink:href="#linear-gradient"/><linearGradient id="linear-gradient-9" x1="31.57" y1="1035.04" x2="30.79" y2="1035.04" gradientTransform="matrix(5.74, 0, 0, -6.08, 578.27, 6863.85)" xlink:href="#linear-gradient"/><linearGradient id="linear-gradient-10" x1="33.7" y1="1030.09" x2="32.92" y2="1030.09" gradientTransform="matrix(5.8, 0, 0, -5.22, 632.22, 5902.78)" xlink:href="#linear-gradient"/><linearGradient id="linear-gradient-11" x1="36.6" y1="1036.05" x2="35.82" y2="1036.05" gradientTransform="matrix(5.18, 0, 0, -5.79, 616.62, 6503.23)" xlink:href="#linear-gradient"/><linearGradient id="linear-gradient-12" x1="36.03" y1="1018.71" x2="35.25" y2="1018.71" gradientTransform="matrix(5.43, 0, 0, -4.32, 637.28, 4940.15)" xlink:href="#linear-gradient"/><linearGradient id="linear-gradient-13" x1="35.98" y1="1030.71" x2="35.2" y2="1030.71" gradientTransform="matrix(5.35, 0, 0, -5.22, 625.84, 5893.53)" xlink:href="#linear-gradient"/></defs><title>1</title><g id="Group_1542" data-name="Group 1542"><g id="Group_1541" data-name="Group 1541"><g id="Marketing" class="cls-1"><text class="cls-2" transform="translate(119.73 109.29) scale(0.94 1)">Mar<tspan class="cls-3" x="102.04" y="0">k</tspan><tspan x="131.41" y="0">eting</tspan></text></g><g id="Group_1540" data-name="Group 1540"><g id="Group_1539" data-name="Group 1539"><path id="Path_1524" data-name="Path 1524" class="cls-4" d="M732.78,619.47c-3.39-1.6-5.15-4.25-4.71-8.54H831.22c.54,4.53-.48,6.36-4.63,8.54Z" transform="translate(-728 -490.5)"/><path id="Path_1525" data-name="Path 1525" class="cls-5" d="M788,490.5l3.19,1.35L789.63,498l-3.91-1.17,1.74-6.31Z" transform="translate(-728 -490.5)"/><path id="Path_1526" data-name="Path 1526" class="cls-6" d="M786.89,563.69c4.41-2.39,7.83-6.24,13.06-6.17,5.53.07,11.06,0,16.81,0V606h-74V557.7h7c0,.29,0,.54,0,.8-.13,4,.78,8.19-2.28,11.67-.61.68-.31,2.64.05,3.85,2.22,7.39,9.2,9.45,14.59,4.24,3.92,3.24,7.92,3.22,12-.17l16.52,15.09c2.93,2.68,4.68,2.65,7.38-.19,1.53-1.6,3-3.22,4.54-4.86,2.46-2.71,2.47-5,0-7.65-4.53-4.88-9.09-9.72-13.63-14.58C788.23,565.3,787.72,564.67,786.89,563.69Z" transform="translate(-728 -490.5)"/><path id="Path_1527" data-name="Path 1527" class="cls-7" d="M815.05,541.92l-27.91,16.26c-5.29-5.73-10.56-11.41-15.75-17.18a2.55,2.55,0,0,1-.14-2.19c4.79-9.56,9.67-19.1,14.46-28.5Z" transform="translate(-728 -490.5)"/><path id="Path_1528" data-name="Path 1528" class="cls-8" d="M767.83,543.94l15.78,16.76c-4.41,4.85-8.74,9.88-13.42,14.49-.88.87-3.79.76-4.77-.13a150.32,150.32,0,0,1-10.85-11.42,4.08,4.08,0,0,1-.11-5.49l.2-.21C759,553.18,763.48,548.55,767.83,543.94Z" transform="translate(-728 -490.5)"/><path id="Path_1529" data-name="Path 1529" class="cls-9" d="M738.3,606.09h-3.82V549h22.19c-1.74,2.83-3.62,4.54-6.85,4.13a58.52,58.52,0,0,0-7.49-.06c-3.59,0-4,.47-4,4.25q0,20.31,0,40.64Z" transform="translate(-728 -490.5)"/><path id="Path_1530" data-name="Path 1530" class="cls-10" d="M825,606h-3.86V557.11c0-3.66-.39-4.06-3.88-4.07H805.62c4.73-4.37,10.59-5.52,19.41-3.9Z" transform="translate(-728 -490.5)"/><path id="Path_1531" data-name="Path 1531" class="cls-11" d="M795.72,579.84l3.84,4.44-5.94,5.91-16.36-15,7.32-7.46,2.2,2.46-2.7,3.24,3.09,2.76,2.76-2.73,2.72,2.91-2.87,3.46,3.22,2.59Z" transform="translate(-728 -490.5)"/><path id="Path_1532" data-name="Path 1532" class="cls-12" d="M758.56,575.46c-2.27,2.49-2.55,2.45-5.76-1.08-2.06-2.27-2-3,.43-5.37Z" transform="translate(-728 -490.5)"/><path id="Path_1533" data-name="Path 1533" class="cls-13" d="M821.4,526.14l-2-3.74,5.26-3.3,2,3.77Z" transform="translate(-728 -490.5)"/><path id="Path_1534" data-name="Path 1534" class="cls-14" d="M805.49,498.61l-3,5.64L799,502.14l3-5.7Z" transform="translate(-728 -490.5)"/><path id="Path_1535" data-name="Path 1535" class="cls-15" d="M826.29,540.22c-.35-1.47-.64-2.73-1-4.15l5.81-1.68,1,4.11Z" transform="translate(-728 -490.5)"/><path id="Path_1536" data-name="Path 1536" class="cls-16" d="M812.92,513.63,810.79,511l4.29-4.39,2.45,2.51Z" transform="translate(-728 -490.5)"/></g></g></g></g></svg>