<svg id="Layer_1" data-name="Layer 1" xmlns="http://www.w3.org/2000/svg" viewBox="0 0 621.65 606.45"><defs><style>.cls-1{fill:#7aa9ff;}.cls-1,.cls-10,.cls-11,.cls-12,.cls-13,.cls-14,.cls-16,.cls-17,.cls-2,.cls-21,.cls-3,.cls-4,.cls-7,.cls-8{fill-rule:evenodd;}.cls-15,.cls-2{fill:#6fa0fd;}.cls-3{fill:#3f79da;}.cls-4{fill:#bedaf7;}.cls-5{fill:#edf7fb;}.cls-13,.cls-6{fill:#aabeeb;}.cls-23,.cls-7{fill:#407adb;}.cls-8,.cls-9{fill:#424b96;}.cls-10{fill:#fdceae;}.cls-11{fill:#f3b898;}.cls-12{fill:#3b70cc;}.cls-14,.cls-19{fill:#b7cdfe;}.cls-16{fill:#5e94ea;}.cls-17{fill:#505bb5;}.cls-18{fill:#3f79dc;}.cls-20,.cls-21{fill:#fff;}.cls-22{fill:#cfd8fc;}</style></defs><title>home</title><g id="Group_1423" data-name="Group 1423"><g id="Group_1296" data-name="Group 1296"><path id="Path_1217" data-name="Path 1217" class="cls-1" d="M797,807.48H669.58a21,21,0,0,1-8.33-5.05c-8.26-8.35-10.76-14.2-10.78-14.18,0,.28,24.16,7.13,21.12,1.73-2.89-5-23.39-4.88-29.05-12.07-5.67-6.95-12.53-19.69-12.47-19.7-.05.19,17.76,11.41,17.4,5.93-.36-5.07-20.73-14-25.2-22.76-4.47-8.28,17.66,6.66,20,3.9,2.22-2.15-21.25-17.35-25.86-24.94-4.8-7.2-5.58-21.18-2.25-18.13s8.67,7.9,8.67,4.66c-.15-3-14.14-22.53-14-29-.11-6.12,15,11.25,16.08,8.93.93-1.85-17.24-19.8-18.93-30.3-1.86-10.18-.41-19,.48-18.81s9.12,13.63,11.05,13.05c1.62-.31-2.66-63,26.95-76.36,24.59,15.92,47.17,56.92,47.28,56.9,1.77-.54,3.88-12.82,4.75-13.2s5.18,4.9,7.95,11.86c2.52,6.82-2.67,26.62-.44,27.32,1.88.44,4.83-17.21,8.12-13.65,3,3.4,3.38,21,5.6,22.54,2,1.45,2.88-4.1,3.63-7.4s8.24,3.33,9.48,9c.9,5.54-2.74,27.27.64,26.4,2.9-1.14,6.26-21.1,9.32-15.43,2.73,5.4-1.88,22.65,2.22,24.12,3.79,1.26,4.78-14.36,4.92-14.28,0,0,5.4,7.64,8.1,12.8,2.5,5-5.87,21.55-2.43,24.51,3.14,2.71,6.6-17.37,6.83-17.24,0,0,3.32,2.51,7,9.24s-1.94,15.14,1.55,21.57,10.14-3.77,10.14-3.74C799.41,764.74,800.32,790.57,797,807.48Z" transform="translate(-550.03 -216.03)"/></g><g id="Group_1297" data-name="Group 1297"><path id="Path_1218" data-name="Path 1218" class="cls-2" d="M797,770.85,678.1,816.72a20.92,20.92,0,0,1-9.59-1.72c-10.71-4.81-15.16-9.37-15.16-9.34.12.25,25.1-2,20.33-6-4.5-3.63-23.58,3.87-31.46-.8-7.79-4.45-18.77-13.86-18.73-13.89,0,.19,20.69,4.25,18.38-.74-2.17-4.6-24.39-5.61-31.71-12.16-7.15-6.12,18.87-.14,20.05-3.56,1.29-2.8-26.08-8.53-33.1-13.95-7.08-5-12.85-17.75-8.64-16.1s10.94,4.25,9.77,1.23c-1.23-2.77-21.31-15.94-23.53-22.06-2.31-5.67,18,5.11,18.21,2.54.21-2.06-23.2-12.27-28.57-21.45C559,689.9,557.13,681.18,558,681s13.41,9.44,15,8.2c1.4-.87-25.16-57.79-2.35-80.93,28.67,6,64.5,36.12,64.59,36.06,1.47-1.15-1-13.36-.32-14s6.6,2.71,11.69,8.2c4.8,5.45,7.1,25.8,9.43,25.64,1.91-.26-1.69-17.79,2.66-15.65,4,2.1,10.72,18.4,13.33,19,2.41.62,1.22-4.86.73-8.21s8.89.15,12.07,5c2.83,4.84,7.26,26.43,10.1,24.4,2.3-2.11-1.76-21.94,3.14-17.75,4.49,4.05,6.4,21.8,10.75,21.7,4-.19-.71-15.11-.55-15.1,0,0,7.8,5.18,12.17,9,4.14,3.81,2.28,22.22,6.56,23.75,3.9,1.4-.1-18.59.15-18.55,0,0,4,1.15,9.89,6.09s3.64,14.83,9.21,19.58,8.1-7.18,8.11-7.15C783.83,730.11,794,753.87,797,770.85Z" transform="translate(-550.03 -216.03)"/></g><g id="Group_1298" data-name="Group 1298"><path id="Path_1219" data-name="Path 1219" class="cls-1" d="M893,807h144.8a23.66,23.66,0,0,0,9.46-5.74c9.38-9.48,12.23-16.14,12.25-16.11,0,.32-27.45,8.1-24,2,3.28-5.69,26.58-5.54,33-13.71,6.44-7.9,14.23-22.38,14.17-22.39,0,.21-20.19,13-19.77,6.74.4-5.77,23.55-15.93,28.64-25.88,5.07-9.4-20.07,7.58-22.72,4.44-2.51-2.44,24.16-19.72,29.39-28.34,5.46-8.18,6.35-24.08,2.57-20.6s-9.86,9-9.86,5.3c.17-3.44,16.07-25.61,15.93-33,.12-7-17,12.79-18.27,10.15-1.06-2.1,19.58-22.5,21.51-34.44,2.12-11.57.47-21.56-.55-21.38s-10.36,15.5-12.56,14.83c-1.84-.35,3-71.56-30.62-86.78-28,18.1-53.6,64.69-53.73,64.66-2-.6-4.42-14.56-5.4-15s-5.89,5.57-9,13.49c-2.86,7.74,3,30.25.5,31-2.13.51-5.48-19.55-9.22-15.51-3.37,3.87-3.84,23.9-6.36,25.62-2.3,1.65-3.28-4.66-4.13-8.41s-9.36,3.79-10.77,10.19c-1,6.29,3.11,31-.73,30-3.3-1.3-7.11-24-10.59-17.54-3.11,6.13,2.13,25.73-2.53,27.41-4.31,1.44-5.42-16.32-5.6-16.23,0,0-6.14,8.68-9.2,14.54-2.84,5.73,6.68,24.49,2.76,27.86-3.56,3.08-7.5-19.75-7.75-19.6,0,0-3.78,2.86-8,10.5s2.21,17.22-1.76,24.52-11.52-4.29-11.53-4.25C890.26,758.39,889.23,787.74,893,807Z" transform="translate(-550.03 -216.03)"/></g><g id="Group_1324" data-name="Group 1324"><g id="Group_1299" data-name="Group 1299"><path id="Path_1220" data-name="Path 1220" class="cls-3" d="M1093.47,512.69c-13.38,15.2-23.93,33.42-33.13,51.33a326.5,326.5,0,0,0-32.66,102.7l-1.74-.62a333.66,333.66,0,0,1,31.84-101c9.33-18.67,20.33-37.68,34.2-53.44C1092.75,510.76,1094.25,511.8,1093.47,512.69Z" transform="translate(-550.03 -216.03)"/></g><g id="Group_1300" data-name="Group 1300"><path id="Path_1221" data-name="Path 1221" class="cls-3" d="M1026.4,666.22s-3.12-17-30.37-28.25C996,638,1003.81,659,1026.4,666.22Z" transform="translate(-550.03 -216.03)"/></g><g id="Group_1301" data-name="Group 1301"><path id="Path_1222" data-name="Path 1222" class="cls-3" d="M1028.48,653.24s-4-18.73-35.62-31.69C992.86,621.55,1002.29,644.8,1028.48,653.24Z" transform="translate(-550.03 -216.03)"/></g><g id="Group_1302" data-name="Group 1302"><path id="Path_1223" data-name="Path 1223" class="cls-3" d="M1030.55,643s-1.26-19.1-30.71-36.46C999.84,606.55,1005.85,630.91,1030.55,643Z" transform="translate(-550.03 -216.03)"/></g><g id="Group_1303" data-name="Group 1303"><path id="Path_1224" data-name="Path 1224" class="cls-3" d="M1034.6,631.75s.74-19.13-26.74-39.47C1007.86,592.28,1011.29,617.14,1034.6,631.75Z" transform="translate(-550.03 -216.03)"/></g><g id="Group_1304" data-name="Group 1304"><path id="Path_1225" data-name="Path 1225" class="cls-3" d="M1038.65,616.43s.36-22.07-32.51-46.29C1006.14,570.14,1010.85,598.93,1038.65,616.43Z" transform="translate(-550.03 -216.03)"/></g><g id="Group_1305" data-name="Group 1305"><path id="Path_1226" data-name="Path 1226" class="cls-3" d="M1044.16,601.1s.4-22.92-33.7-48.05C1010.46,553.05,1015.32,582.94,1044.16,601.1Z" transform="translate(-550.03 -216.03)"/></g><g id="Group_1306" data-name="Group 1306"><path id="Path_1227" data-name="Path 1227" class="cls-3" d="M1047.83,588.26s4-22.56-25.62-52.79C1022.21,535.47,1022.24,565.76,1047.83,588.26Z" transform="translate(-550.03 -216.03)"/></g><g id="Group_1307" data-name="Group 1307"><path id="Path_1228" data-name="Path 1228" class="cls-3" d="M1054.9,571.76s6.3-19.7-16.62-50.25C1038.28,521.51,1034.71,548.59,1054.9,571.76Z" transform="translate(-550.03 -216.03)"/></g><g id="Group_1308" data-name="Group 1308"><path id="Path_1229" data-name="Path 1229" class="cls-3" d="M1063.87,556.08s4.92-17.77-16.84-46.58C1047,509.5,1044.83,534.13,1063.87,556.08Z" transform="translate(-550.03 -216.03)"/></g><g id="Group_1309" data-name="Group 1309"><path id="Path_1230" data-name="Path 1230" class="cls-3" d="M1072,540.63s3.39-15-16.11-40.66C1055.9,500,1055.09,521,1072,540.63Z" transform="translate(-550.03 -216.03)"/></g><g id="Group_1310" data-name="Group 1310"><path id="Path_1231" data-name="Path 1231" class="cls-3" d="M1078.1,532.57s4.79-12.46-8.29-39.26C1069.81,493.31,1066.42,511.61,1078.1,532.57Z" transform="translate(-550.03 -216.03)"/></g><g id="Group_1311" data-name="Group 1311"><path id="Path_1232" data-name="Path 1232" class="cls-3" d="M1085.27,521.09s5.26-10.24-4.4-30.43A41.91,41.91,0,0,0,1085.27,521.09Z" transform="translate(-550.03 -216.03)"/></g><g id="Group_1312" data-name="Group 1312"><path id="Path_1233" data-name="Path 1233" class="cls-3" d="M1090.54,514.22s14.53-2.55,17-23.15C1107.54,491.07,1091.1,497.85,1090.54,514.22Z" transform="translate(-550.03 -216.03)"/></g><g id="Group_1313" data-name="Group 1313"><path id="Path_1234" data-name="Path 1234" class="cls-3" d="M1115.52,512.2s-10.74-4.12-29.77,7.68A41.87,41.87,0,0,0,1115.52,512.2Z" transform="translate(-550.03 -216.03)"/></g><g id="Group_1314" data-name="Group 1314"><path id="Path_1235" data-name="Path 1235" class="cls-3" d="M1026.34,665s13.22-11.13,41.41-2.48C1067.74,662.56,1048.37,673.83,1026.34,665Z" transform="translate(-550.03 -216.03)"/></g><g id="Group_1315" data-name="Group 1315"><path id="Path_1236" data-name="Path 1236" class="cls-3" d="M1030.92,643.14s13.12-13.93,46.89-8.59C1077.81,634.55,1057.68,649.52,1030.92,643.14Z" transform="translate(-550.03 -216.03)"/></g><g id="Group_1316" data-name="Group 1316"><path id="Path_1237" data-name="Path 1237" class="cls-3" d="M1033.84,630.62s11.6-15.23,45.73-13.44C1079.57,617.17,1061.12,634.16,1033.84,630.62Z" transform="translate(-550.03 -216.03)"/></g><g id="Group_1317" data-name="Group 1317"><path id="Path_1238" data-name="Path 1238" class="cls-3" d="M1038.15,615.58s13.76-17.25,54.53-15C1092.68,600.54,1070.74,619.77,1038.15,615.58Z" transform="translate(-550.03 -216.03)"/></g><g id="Group_1318" data-name="Group 1318"><path id="Path_1239" data-name="Path 1239" class="cls-3" d="M1043.7,599.77s14.27-17.93,56.56-15.64C1100.26,584.13,1077.5,604.11,1043.7,599.77Z" transform="translate(-550.03 -216.03)"/></g><g id="Group_1319" data-name="Group 1319"><path id="Path_1240" data-name="Path 1240" class="cls-3" d="M1048.48,587.34s11.24-20,53.35-24.44C1101.83,562.9,1082.54,586.25,1048.48,587.34Z" transform="translate(-550.03 -216.03)"/></g><g id="Group_1320" data-name="Group 1320"><path id="Path_1241" data-name="Path 1241" class="cls-3" d="M1055.78,570.41s9.8-18.21,47.7-22.93C1103.48,547.48,1086.48,568.86,1055.78,570.41Z" transform="translate(-550.03 -216.03)"/></g><g id="Group_1321" data-name="Group 1321"><path id="Path_1242" data-name="Path 1242" class="cls-3" d="M1064.55,554.18s7.52-16.84,42.64-25.22C1107.19,529,1093.21,549.36,1064.55,554.18Z" transform="translate(-550.03 -216.03)"/></g><g id="Group_1322" data-name="Group 1322"><path id="Path_1243" data-name="Path 1243" class="cls-3" d="M1078.32,532s8.2-10.53,37.91-13.17C1116.23,518.81,1102.31,531.16,1078.32,532Z" transform="translate(-550.03 -216.03)"/></g><g id="Group_1323" data-name="Group 1323"><path id="Path_1244" data-name="Path 1244" class="cls-3" d="M1028.09,653.1s15-11.92,47.64-1.79C1075.73,651.31,1053.66,663.24,1028.09,653.1Z" transform="translate(-550.03 -216.03)"/></g></g><g id="Group_1325" data-name="Group 1325"><path id="Path_1245" data-name="Path 1245" class="cls-2" d="M899.88,759.11,1035,811.24a23.67,23.67,0,0,0,10.89-2c12.17-5.47,17.23-10.65,17.23-10.62-.14.29-28.52-2.33-23.1-6.81,5.12-4.12,26.8,4.4,35.75-.9,8.85-5.06,21.33-15.75,21.28-15.79,0,.22-23.5,4.83-20.87-.83,2.45-5.23,27.7-6.38,36-13.83,8.12-7-21.45-.16-22.78-4-1.47-3.18,29.63-9.7,37.61-15.86,8-5.66,14.6-20.17,9.82-18.3s-12.43,4.84-11.1,1.4c1.4-3.15,24.21-18.11,26.74-25.07,2.62-6.44-20.44,5.81-20.7,2.89-.23-2.34,26.38-13.94,32.47-24.39,6.14-10,8.2-19.94,7.19-20.14s-15.25,10.73-17.06,9.32c-1.59-1,28.59-65.68,2.67-92-32.59,6.82-73.3,41-73.4,41-1.67-1.3,1.12-15.18.36-15.94s-7.5,3.08-13.29,9.33c-5.45,6.2-8.06,29.31-10.71,29.14-2.17-.29,1.92-20.22-3-17.79-4.54,2.39-12.19,20.92-15.16,21.6-2.73.71-1.38-5.52-.82-9.33s-10.1.17-13.72,5.63c-3.22,5.5-8.25,30-11.49,27.73-2.61-2.4,2-24.94-3.56-20.17-5.11,4.6-7.28,24.77-12.23,24.66-4.54-.21.81-17.18.63-17.16,0,0-8.86,5.89-13.83,10.25-4.71,4.33-2.58,25.26-7.45,27-4.43,1.59.12-21.12-.18-21.08,0,0-4.55,1.3-11.23,6.92S963.8,693,957.47,698.34s-9.2-8.15-9.22-8.12C914.8,712.8,903.27,739.81,899.88,759.11Z" transform="translate(-550.03 -216.03)"/></g><g id="Group_1351" data-name="Group 1351"><g id="Group_1326" data-name="Group 1326"><path id="Path_1246" data-name="Path 1246" class="cls-3" d="M634.85,537c13.38,15.2,23.93,33.43,33.13,51.34A326.42,326.42,0,0,1,700.64,691l1.74-.63a334,334,0,0,0-31.84-101c-9.33-18.67-20.33-37.68-34.2-53.44C635.57,535,634.07,536.09,634.85,537Z" transform="translate(-550.03 -216.03)"/></g><g id="Group_1327" data-name="Group 1327"><path id="Path_1247" data-name="Path 1247" class="cls-3" d="M701.92,690.5s3.12-17,30.37-28.25C732.29,662.25,724.51,683.27,701.92,690.5Z" transform="translate(-550.03 -216.03)"/></g><g id="Group_1328" data-name="Group 1328"><path id="Path_1248" data-name="Path 1248" class="cls-3" d="M699.85,677.52s4-18.72,35.61-31.68C735.46,645.84,726,669.08,699.85,677.52Z" transform="translate(-550.03 -216.03)"/></g><g id="Group_1329" data-name="Group 1329"><path id="Path_1249" data-name="Path 1249" class="cls-3" d="M697.77,667.29s1.26-19.1,30.71-36.46C728.48,630.83,722.47,655.19,697.77,667.29Z" transform="translate(-550.03 -216.03)"/></g><g id="Group_1330" data-name="Group 1330"><path id="Path_1250" data-name="Path 1250" class="cls-3" d="M693.72,656s-.74-19.13,26.74-39.47C720.46,616.56,717,641.41,693.72,656Z" transform="translate(-550.03 -216.03)"/></g><g id="Group_1331" data-name="Group 1331"><path id="Path_1251" data-name="Path 1251" class="cls-3" d="M689.67,640.71s-.36-22.07,32.51-46.29C722.18,594.42,717.48,623.21,689.67,640.71Z" transform="translate(-550.03 -216.03)"/></g><g id="Group_1332" data-name="Group 1332"><path id="Path_1252" data-name="Path 1252" class="cls-3" d="M684.16,625.38s-.4-22.92,33.7-48C717.86,577.33,713,607.22,684.16,625.38Z" transform="translate(-550.03 -216.03)"/></g><g id="Group_1333" data-name="Group 1333"><path id="Path_1253" data-name="Path 1253" class="cls-3" d="M680.49,612.54s-4-22.56,25.62-52.79C706.1,559.75,706.08,590,680.49,612.54Z" transform="translate(-550.03 -216.03)"/></g><g id="Group_1334" data-name="Group 1334"><path id="Path_1254" data-name="Path 1254" class="cls-3" d="M673.42,596s-6.3-19.69,16.62-50.25C690,545.79,693.62,572.87,673.42,596Z" transform="translate(-550.03 -216.03)"/></g><g id="Group_1335" data-name="Group 1335"><path id="Path_1255" data-name="Path 1255" class="cls-3" d="M664.45,580.36s-4.92-17.77,16.84-46.58C681.29,533.78,683.48,558.42,664.45,580.36Z" transform="translate(-550.03 -216.03)"/></g><g id="Group_1336" data-name="Group 1336"><path id="Path_1256" data-name="Path 1256" class="cls-3" d="M656.31,564.91s-3.39-15,16.11-40.65C672.42,524.26,673.24,545.29,656.31,564.91Z" transform="translate(-550.03 -216.03)"/></g><g id="Group_1337" data-name="Group 1337"><path id="Path_1257" data-name="Path 1257" class="cls-3" d="M650.22,556.86s-4.79-12.47,8.29-39.27C658.51,517.59,661.9,535.89,650.22,556.86Z" transform="translate(-550.03 -216.03)"/></g><g id="Group_1338" data-name="Group 1338"><path id="Path_1258" data-name="Path 1258" class="cls-3" d="M643.05,545.37s-5.27-10.24,4.4-30.44A41.93,41.93,0,0,1,643.05,545.37Z" transform="translate(-550.03 -216.03)"/></g><g id="Group_1339" data-name="Group 1339"><path id="Path_1259" data-name="Path 1259" class="cls-3" d="M637.78,538.5s-14.53-2.55-17-23.15C620.78,515.36,637.22,522.14,637.78,538.5Z" transform="translate(-550.03 -216.03)"/></g><g id="Group_1340" data-name="Group 1340"><path id="Path_1260" data-name="Path 1260" class="cls-3" d="M612.8,536.48s10.74-4.12,29.77,7.68A41.87,41.87,0,0,1,612.8,536.48Z" transform="translate(-550.03 -216.03)"/></g><g id="Group_1341" data-name="Group 1341"><path id="Path_1261" data-name="Path 1261" class="cls-3" d="M702,689.32s-13.22-11.13-41.41-2.47C660.57,686.85,680,698.11,702,689.32Z" transform="translate(-550.03 -216.03)"/></g><g id="Group_1342" data-name="Group 1342"><path id="Path_1262" data-name="Path 1262" class="cls-3" d="M697.4,667.42s-13.12-13.93-46.89-8.59C650.51,658.83,670.64,673.8,697.4,667.42Z" transform="translate(-550.03 -216.03)"/></g><g id="Group_1343" data-name="Group 1343"><path id="Path_1263" data-name="Path 1263" class="cls-3" d="M694.48,654.9s-11.6-15.23-45.73-13.45C648.75,641.45,667.2,658.44,694.48,654.9Z" transform="translate(-550.03 -216.03)"/></g><g id="Group_1344" data-name="Group 1344"><path id="Path_1264" data-name="Path 1264" class="cls-3" d="M690.17,639.86s-13.76-17.25-54.53-15C635.64,624.83,657.58,644.05,690.17,639.86Z" transform="translate(-550.03 -216.03)"/></g><g id="Group_1345" data-name="Group 1345"><path id="Path_1265" data-name="Path 1265" class="cls-3" d="M684.62,624.06s-14.27-17.94-56.56-15.64C628.06,608.42,650.82,628.4,684.62,624.06Z" transform="translate(-550.03 -216.03)"/></g><g id="Group_1346" data-name="Group 1346"><path id="Path_1266" data-name="Path 1266" class="cls-3" d="M679.83,611.62s-11.23-20-53.35-24.44C626.49,587.18,645.78,610.53,679.83,611.62Z" transform="translate(-550.03 -216.03)"/></g><g id="Group_1347" data-name="Group 1347"><path id="Path_1267" data-name="Path 1267" class="cls-3" d="M672.54,594.69s-9.8-18.2-47.7-22.93C624.84,571.76,641.85,593.14,672.54,594.69Z" transform="translate(-550.03 -216.03)"/></g><g id="Group_1348" data-name="Group 1348"><path id="Path_1268" data-name="Path 1268" class="cls-3" d="M663.77,578.47s-7.52-16.85-42.64-25.23C621.13,553.24,635.11,573.64,663.77,578.47Z" transform="translate(-550.03 -216.03)"/></g><g id="Group_1349" data-name="Group 1349"><path id="Path_1269" data-name="Path 1269" class="cls-3" d="M650,556.26s-8.2-10.53-37.91-13.17C612.09,543.09,626,555.45,650,556.26Z" transform="translate(-550.03 -216.03)"/></g><g id="Group_1350" data-name="Group 1350"><path id="Path_1270" data-name="Path 1270" class="cls-3" d="M700.23,677.38s-15-11.91-47.64-1.79C652.59,675.59,674.66,687.52,700.23,677.38Z" transform="translate(-550.03 -216.03)"/></g></g><g id="Group_1352" data-name="Group 1352"><path id="Path_1271" data-name="Path 1271" class="cls-4" d="M857.26,822.48c124.42,0,225.89-7,225.89-15.53s-101.47-15.52-225.89-15.52-225.89,7-225.89,15.52S732.85,822.48,857.26,822.48Z" transform="translate(-550.03 -216.03)"/></g><g id="Group_1422" data-name="Group 1422"><g id="Group_1353" data-name="Group 1353"><path id="Path_1272" data-name="Path 1272" class="cls-2" d="M1001.48,302.56V765.7A41.26,41.26,0,0,1,960.24,807H756.54a41.24,41.24,0,0,1-41.25-41.24V302.56a41.26,41.26,0,0,1,41.25-41.26H960.22A41.27,41.27,0,0,1,1001.48,302.56Z" transform="translate(-550.03 -216.03)"/></g><g id="Group_1354" data-name="Group 1354"><path id="Rectangle_86" data-name="Rectangle 86" class="cls-5" d="M744.05,272.49H972.72a17.57,17.57,0,0,1,17.57,17.57h0V778.2a17.57,17.57,0,0,1-17.57,17.57H744.05a17.57,17.57,0,0,1-17.57-17.57V290.06a17.57,17.57,0,0,1,17.57-17.57Z" transform="translate(-550.03 -216.03)"/></g><g id="Group_1355" data-name="Group 1355"><ellipse id="Ellipse_92" data-name="Ellipse 92" class="cls-6" cx="306.21" cy="491.25" rx="80.13" ry="14.1"/></g><g id="Group_1356" data-name="Group 1356"><path id="Path_1273" data-name="Path 1273" class="cls-7" d="M1003.88,455h-2.4V345.7h2.4a5.41,5.41,0,0,1,5.4,5.41h0v98.46A5.41,5.41,0,0,1,1003.88,455Z" transform="translate(-550.03 -216.03)"/></g><g id="Group_1357" data-name="Group 1357"><path id="Path_1274" data-name="Path 1274" class="cls-7" d="M715.29,397h-2.23a5,5,0,0,1-5-5h0V348.87a5,5,0,0,1,5-5h2.23Z" transform="translate(-550.03 -216.03)"/></g><g id="Group_1358" data-name="Group 1358"><path id="Path_1275" data-name="Path 1275" class="cls-7" d="M715.29,455h-1.95A4.38,4.38,0,0,1,709,450.6v-24a4.38,4.38,0,0,1,4.38-4.38h1.95Z" transform="translate(-550.03 -216.03)"/></g><g id="Group_1359" data-name="Group 1359"><path id="Path_1276" data-name="Path 1276" class="cls-2" d="M790.84,261.3H926.12v19.43a19.48,19.48,0,0,1-19.43,19.42H810.26a19.48,19.48,0,0,1-19.42-19.42Z" transform="translate(-550.03 -216.03)"/></g><g id="Group_1362" data-name="Group 1362"><g id="Group_1360" data-name="Group 1360"><path id="Path_1277" data-name="Path 1277" class="cls-8" d="M829.6,280.73a4.7,4.7,0,1,1-4.7-4.7h0A4.69,4.69,0,0,1,829.6,280.73Z" transform="translate(-550.03 -216.03)"/></g><g id="Group_1361" data-name="Group 1361"><path id="Rectangle_87" data-name="Rectangle 87" class="cls-9" d="M285.13,61.25h60.2a1.4,1.4,0,0,1,1.4,1.4v4.1a1.39,1.39,0,0,1-1.39,1.39h-60.2a1.39,1.39,0,0,1-1.39-1.39v-4.1A1.39,1.39,0,0,1,285.13,61.25Z"/></g></g><g id="Group_1385" data-name="Group 1385"><g id="Group_1371" data-name="Group 1371"><g id="Group_1363" data-name="Group 1363"><path id="Path_1278" data-name="Path 1278" class="cls-10" d="M702.14,442c4.75-2.35,11.5,2.41,15.17,10.66,2.7.59,4.55,4.6,4.2,9.42-.28,4-2,7.38-4.14,8.69a6.11,6.11,0,0,1-2,1.62c-4.78,2.38-11.62-2.5-15.26-10.89S697.36,444.38,702.14,442Z" transform="translate(-550.03 -216.03)"/></g><g id="Group_1364" data-name="Group 1364"><path id="Path_1279" data-name="Path 1279" class="cls-10" d="M991.9,502.31c-4.74-2.35-11.5,2.41-15.16,10.66-2.7.59-4.55,4.6-4.2,9.43.28,4,2,7.37,4.14,8.68a6.27,6.27,0,0,0,2,1.63c4.78,2.37,11.62-2.5,15.26-10.9S996.69,504.69,991.9,502.31Z" transform="translate(-550.03 -216.03)"/></g><g id="Group_1365" data-name="Group 1365"><path id="Path_1280" data-name="Path 1280" class="cls-7" d="M844.18,527.32l-34.31,4.87c-43.57,6.18-74.27-21.18-88.68-65.77a17.23,17.23,0,0,1-14.51,4.69c6.93,56.57,39.46,89.1,96.46,101.28,1.42,44.31,3.81,92.21,2.74,135.76a250.15,250.15,0,0,0,96.27,2.37c-3.7-44.24-2.81-83,1.28-125.85,14.69,14.75,41.7,32.43,51.21,30.69,16.81-3.08,25.81-45.3,31.1-83.4-6.26-.56-10.59-3.84-13.2-9.56-6.54,21.28-14.13,39-22.43,59-30.43-19.94-41.8-38-76.38-55.7Z" transform="translate(-550.03 -216.03)"/></g><g id="Group_1366" data-name="Group 1366"><path id="Path_1281" data-name="Path 1281" class="cls-10" d="M843.7,510.37h30v15.3c8.34,8.17,4,14.44-8,13.82-10.14-.54-22.07-4.06-22.07-16.08Z" transform="translate(-550.03 -216.03)"/></g><g id="Group_1367" data-name="Group 1367"><path id="Path_1282" data-name="Path 1282" class="cls-11" d="M843.7,510.37h30V518l-25.38,15.91a13.23,13.23,0,0,1-4.64-10.52Z" transform="translate(-550.03 -216.03)"/></g><g id="Group_1368" data-name="Group 1368"><path id="Path_1283" data-name="Path 1283" class="cls-8" d="M885.67,451.69l-42,58.68.38,6.47c-11.62-16.23-23.68-19.5-28.92-36.85-6.89-22.84-1.08-42.44,19.18-49.74,6-2.16,13.1,2.1,18.79-.95,14.63-7.85,21-4.8,22.27.68,2.14,9.12,17.3-3.91,21.77,4.73S896.27,450.16,885.67,451.69Z" transform="translate(-550.03 -216.03)"/></g><g id="Group_1369" data-name="Group 1369"><path id="Path_1284" data-name="Path 1284" class="cls-10" d="M857.13,455.49a52.12,52.12,0,0,0,28.54-3.8c14.76,24.81,15.28,59.68-10.92,66.37-14.5,3.7-34-1.85-36.33-19.44-10.32-1-14.87-17.78-9.35-22.13,5.8-4.57,9.79,4,10.71,8.94l2.53-.74L841,471.35A32.31,32.31,0,0,0,857.13,455.49Z" transform="translate(-550.03 -216.03)"/></g><g id="Group_1370" data-name="Group 1370"><path id="Path_1285" data-name="Path 1285" class="cls-11" d="M857.13,455.49a52.12,52.12,0,0,0,28.54-3.8A43.53,43.53,0,0,1,858.1,465c-12.25,20.46-6.23,44.76,21,51.6a30.49,30.49,0,0,1-4.35,1.47c-14.5,3.7-34-1.85-36.34-19.44-10.31-1-14.87-17.78-9.34-22.13,5.8-4.57,9.78,4,10.7,8.94l2.54-.74L841,471.35A32.31,32.31,0,0,0,857.13,455.49Z" transform="translate(-550.03 -216.03)"/></g></g><g id="Group_1384" data-name="Group 1384"><g id="Group_1372" data-name="Group 1372"><path id="Path_1286" data-name="Path 1286" class="cls-12" d="M976.63,505.65l11.16-2.55L992,521.31a2.68,2.68,0,0,1-2,3.21L984,525.88a2.69,2.69,0,0,1-3.22-2Z" transform="translate(-550.03 -216.03)"/></g><g id="Group_1373" data-name="Group 1373"><path id="Path_1287" data-name="Path 1287" class="cls-13" d="M965.56,467.87c25.48-4,47-10.87,59.15-26.8l25,56.69L1033,518.13c-23.85-14.91-41.17-14-63.13-11.87-10.47,1-19.92-6.09-21.08-16.54h0a19.49,19.49,0,0,1,1.76-10.45h0l.17-.35,0-.05a22.2,22.2,0,0,1,1.22-2.11h0l.21-.31,0-.06a2.83,2.83,0,0,1,.2-.28l0-.06.22-.3h0l.23-.31,0-.05c.32-.41.66-.81,1-1.19l0,0,.21-.23.1-.1.19-.2.12-.12.19-.18.12-.12.2-.18.12-.12.2-.18.1-.09.23-.2.32-.26.2-.17.14-.11.2-.15.16-.12.2-.15.15-.11.2-.14.17-.12.18-.12.22-.15.15-.09.24-.15.15-.09.25-.15.13-.08h0l.1-.05.29-.16.12-.07.27-.14.16-.08.25-.13.16-.08.24-.11.18-.08.24-.1.17-.08.28-.11.13-.06.31-.11.13-.05h0l.4-.15h0l.17-.05.27-.09.17-.05.27-.08.19-.06.25-.06.19-.05.28-.07.15,0,.32-.07.14,0,.31-.06.16,0Z" transform="translate(-550.03 -216.03)"/></g><g id="Group_1374" data-name="Group 1374"><path id="Path_1288" data-name="Path 1288" class="cls-14" d="M965.56,467.87c25.48-4,47-10.87,59.15-26.8-6.6,19.75-8.7,39.5-5.61,59.24-16.14-3.4-32.28-3.36-48.42-1.37l-11.86-28.7.08-.05.28-.15.13-.07.26-.14.17-.09.24-.12.17-.08.23-.11.18-.08.25-.11.17-.07.28-.11.13-.06.31-.12.12-.05h0l.4-.14h0l.17-.05.26-.09.18-.05.27-.08.18-.06.25-.06.19-.05.29-.07.15,0,.32-.07.14,0L965,468l.16,0Z" transform="translate(-550.03 -216.03)"/></g><g id="Group_1375" data-name="Group 1375"><path id="Path_1289" data-name="Path 1289" class="cls-7" d="M965.56,467.87c1.39-.22,2.76-.44,4.12-.68a90,90,0,0,0-.29,23.36,96.68,96.68,0,0,0,3,15.47l-2.54.24c-10.47,1-19.92-6.08-21.08-16.54h0A20.16,20.16,0,0,1,965.56,467.87Z" transform="translate(-550.03 -216.03)"/></g><g id="Group_1376" data-name="Group 1376"><path id="Path_1290" data-name="Path 1290" class="cls-14" d="M1048.41,410.7c18.24-2,36.33,26,40.4,62.68s-7.43,68-25.67,70-36.34-26-40.4-62.68S1030.17,412.73,1048.41,410.7Z" transform="translate(-550.03 -216.03)"/></g><g id="Group_1377" data-name="Group 1377"><path id="Path_1291" data-name="Path 1291" class="cls-13" d="M1048.87,414.8c16-1.78,32,24.66,35.84,59s-6,63.69-22,65.46-32-24.66-35.84-59S1032.88,416.57,1048.87,414.8Z" transform="translate(-550.03 -216.03)"/></g><g id="Group_1378" data-name="Group 1378"><ellipse id="Ellipse_93" data-name="Ellipse 93" class="cls-15" cx="1055.78" cy="477.05" rx="26.4" ry="58.16" transform="translate(-596.2 -96.66) rotate(-6.33)"/></g><g id="Group_1379" data-name="Group 1379"><path id="Path_1292" data-name="Path 1292" class="cls-16" d="M1044.47,524.11c-7.21-9.92-12.9-25.82-14.93-44.15a115.23,115.23,0,0,1,.44-30.2c8.28-.2,16.77,16.48,19.14,37.86C1050.85,503.24,1048.85,517.13,1044.47,524.11Z" transform="translate(-550.03 -216.03)"/></g><g id="Group_1380" data-name="Group 1380"><path id="Path_1293" data-name="Path 1293" class="cls-17" d="M1047.46,473.41l-18.67-4.65c.08,3.64.32,7.39.75,11.2a125.52,125.52,0,0,0,2.53,14.79l17.14-6.28Z" transform="translate(-550.03 -216.03)"/></g><g id="Group_1381" data-name="Group 1381"><path id="Path_1294" data-name="Path 1294" class="cls-8" d="M1030,483.89l18.3-2.95.87,7.53-17.14,6.28C1031.25,491.27,1030.57,487.64,1030,483.89Z" transform="translate(-550.03 -216.03)"/></g><g id="Group_1382" data-name="Group 1382"><path id="Path_1295" data-name="Path 1295" class="cls-13" d="M1047.47,473.41c2.11-.23,4.2,2.95,4.66,7.11s-.88,7.72-3,8-4.2-3-4.67-7.11S1045.35,473.65,1047.47,473.41Z" transform="translate(-550.03 -216.03)"/></g><g id="Group_1383" data-name="Group 1383"><path id="Path_1296" data-name="Path 1296" class="cls-8" d="M971.64,466.85a89.25,89.25,0,0,0-.31,23.49,96.29,96.29,0,0,0,3,15.51l-1.95.17a96.89,96.89,0,0,1-3-15.47,89.56,89.56,0,0,1,.29-23.36Z" transform="translate(-550.03 -216.03)"/></g></g></g><g id="Group_1389" data-name="Group 1389"><g id="Group_1386" data-name="Group 1386"><path id="Path_1297" data-name="Path 1297" class="cls-14" d="M705.63,385.81l16.92,23.38a37.23,37.23,0,1,1-60.33,43.65h0L645.3,429.46l14.33-10.37,16.91,23.38a19.61,19.61,0,0,0,27.3,4.38h0a19.6,19.6,0,0,0,4.38-27.3l-16.91-23.38Z" transform="translate(-550.03 -216.03)"/></g><g id="Group_1387" data-name="Group 1387"><rect id="Rectangle_88" data-name="Rectangle 88" class="cls-9" x="638.23" y="407.06" width="17.68" height="19.54" transform="translate(-671.54 242.37) rotate(-35.88)"/><path id="Path_1298" data-name="Path 1298" class="cls-18" d="M645.59,430.25l-.13-.18-11.59-16,.18-.13,14.52-10.5.13.18,11.59,16-.19.13Zm-11.1-16.1,11.2,15.47,14-10.1-11.2-15.47Z" transform="translate(-550.03 -216.03)"/></g><g id="Group_1388" data-name="Group 1388"><rect id="Rectangle_89" data-name="Rectangle 89" class="cls-9" x="684.24" y="373.78" width="17.69" height="19.55" transform="translate(-643.3 263) rotate(-35.88)"/></g></g><g id="Group_1393" data-name="Group 1393"><g id="Group_1390" data-name="Group 1390"><path id="Path_1299" data-name="Path 1299" class="cls-14" d="M1099.54,442.09l1.65,4.13,40.2-14.76-5.5-12.11Z" transform="translate(-550.03 -216.03)"/></g><g id="Group_1391" data-name="Group 1391"><path id="Path_1300" data-name="Path 1300" class="cls-14" d="M1103.4,470.57l.55,7.71,60.57,8.81-.82-17.9Z" transform="translate(-550.03 -216.03)"/></g><g id="Group_1392" data-name="Group 1392"><path id="Path_1301" data-name="Path 1301" class="cls-14" d="M1100.64,500.58l-2.48,5.78,31.39,27.26,5.79-9.64Z" transform="translate(-550.03 -216.03)"/></g></g><g id="Group_1398" data-name="Group 1398"><g id="Group_1394" data-name="Group 1394"><rect id="Rectangle_90" data-name="Rectangle 90" class="cls-19" x="25.22" y="290.54" width="106.02" height="98.76" rx="14.31"/></g><g id="Group_1397" data-name="Group 1397"><g id="Group_1395" data-name="Group 1395"><path id="Rectangle_91" data-name="Rectangle 91" class="cls-20" d="M597.61,527.93h61.3a4.6,4.6,0,0,1,4.6,4.61v46.81a4.6,4.6,0,0,1-4.6,4.6h-61.3a4.6,4.6,0,0,1-4.6-4.6V532.53A4.6,4.6,0,0,1,597.61,527.93Z" transform="translate(-550.03 -216.03)"/></g><g id="Group_1396" data-name="Group 1396"><path id="Path_1302" data-name="Path 1302" class="cls-14" d="M628.26,559.59,598.79,533.7l29.47,18.72,29.47-18.72Z" transform="translate(-550.03 -216.03)"/></g></g></g><g id="Group_1401" data-name="Group 1401"><g id="Group_1399" data-name="Group 1399"><circle id="Ellipse_94" data-name="Ellipse 94" class="cls-19" cx="472.85" cy="92.99" r="43.94"/></g><g id="Group_1400" data-name="Group 1400"><path id="Path_1303" data-name="Path 1303" class="cls-21" d="M1031.21,294.18l-19.57,8.9c-.29-.16-.62-.46-.92-.66a8.38,8.38,0,1,0-2.2,15.05,8.76,8.76,0,0,0,2.13-1,7.06,7.06,0,0,0,.89-.66,9.2,9.2,0,0,1,.87-.77,19.42,19.42,0,0,1,1.8,1c5.31,3,10.9,5.94,16.21,8.86,1.22.67.73.29,1.12,1.64a8.38,8.38,0,1,0,2.29-8.32,13.39,13.39,0,0,0-1.29,1.53c-.37-.07-12.61-6.84-13.5-7.34l-4.52-2.45-.1-2.09c3.14-1.43,6.23-2.86,9.43-4.29.58-.26,9.08-4.19,9.47-4.24A8.5,8.5,0,0,0,1038,302a8.39,8.39,0,0,0,9.41-5.24,8.55,8.55,0,0,0-.14-6.31,8.39,8.39,0,0,0-16,1.94C1031.22,293,1031.29,293.57,1031.21,294.18Z" transform="translate(-550.03 -216.03)"/></g></g><g id="Group_1402" data-name="Group 1402"><path id="Path_1304" data-name="Path 1304" class="cls-14" d="M611.69,299.35H725.43c13.66,0,24.75-10.81,24.75-24.15S739.09,251,725.43,251a25,25,0,0,0-13.56,4,24,24,0,0,0-39.8-23.36,19.6,19.6,0,1,0-38.38,8,20,20,0,0,0,1.26,3.93c-.39,0-.79,0-1.19,0A17.52,17.52,0,0,0,617,266.14a17,17,0,1,0-5.31,33.21Z" transform="translate(-550.03 -216.03)"/></g><g id="Group_1409" data-name="Group 1409"><g id="Group_1403" data-name="Group 1403"><rect id="Rectangle_92" data-name="Rectangle 92" class="cls-22" x="219.61" y="135.49" width="195.56" height="8.43" rx="2.46"/></g><g id="Group_1404" data-name="Group 1404"><path id="Rectangle_93" data-name="Rectangle 93" class="cls-22" d="M772.1,375.11H962.74a2.46,2.46,0,0,1,2.46,2.46v3.5a2.46,2.46,0,0,1-2.46,2.46H772.1a2.46,2.46,0,0,1-2.46-2.46h0v-3.5a2.44,2.44,0,0,1,2.45-2.46Z" transform="translate(-550.03 -216.03)"/></g><g id="Group_1405" data-name="Group 1405"><rect id="Rectangle_94" data-name="Rectangle 94" class="cls-22" x="219.61" y="182.67" width="195.56" height="8.43" rx="2.46"/></g><g id="Group_1406" data-name="Group 1406"><rect id="Rectangle_95" data-name="Rectangle 95" class="cls-23" x="201.54" y="135.49" width="10.69" height="8.43" rx="2.46"/></g><g id="Group_1407" data-name="Group 1407"><path id="Rectangle_96" data-name="Rectangle 96" class="cls-23" d="M754,375.11h5.77a2.46,2.46,0,0,1,2.46,2.46h0v3.5a2.46,2.46,0,0,1-2.46,2.46H754a2.47,2.47,0,0,1-2.47-2.46h0v-3.5a2.46,2.46,0,0,1,2.46-2.46Z" transform="translate(-550.03 -216.03)"/></g><g id="Group_1408" data-name="Group 1408"><rect id="Rectangle_97" data-name="Rectangle 97" class="cls-23" x="201.54" y="182.67" width="10.69" height="8.43" rx="2.46"/></g></g><g id="Group_1414" data-name="Group 1414"><g id="Group_1410" data-name="Group 1410"><rect id="Rectangle_98" data-name="Rectangle 98" class="cls-22" x="219.61" y="523.4" width="195.56" height="8.43" rx="2.46"/></g><g id="Group_1411" data-name="Group 1411"><rect id="Rectangle_99" data-name="Rectangle 99" class="cls-22" x="219.61" y="547" width="195.56" height="8.43" rx="2.46"/></g><g id="Group_1412" data-name="Group 1412"><rect id="Rectangle_100" data-name="Rectangle 100" class="cls-23" x="201.54" y="523.4" width="10.69" height="8.43" rx="2.46"/></g><g id="Group_1413" data-name="Group 1413"><rect id="Rectangle_101" data-name="Rectangle 101" class="cls-23" x="201.54" y="547" width="10.69" height="8.43" rx="2.46"/></g></g><g id="Group_1417" data-name="Group 1417"><g id="Group_1415" data-name="Group 1415"><rect id="Rectangle_102" data-name="Rectangle 102" class="cls-19" x="401.65" y="442.09" width="166.48" height="114.36" rx="9.87"/></g><g id="Group_1416" data-name="Group 1416"><path id="Path_1305" data-name="Path 1305" class="cls-21" d="M1012.49,694.27l44.85,21-44.84,21Z" transform="translate(-550.03 -216.03)"/></g></g><g id="Group_1420" data-name="Group 1420"><g id="Group_1418" data-name="Group 1418"><path id="Path_1306" data-name="Path 1306" class="cls-14" d="M633.26,685h24.12l6.17-10.25c.85-1.41,1.54-3,4.66-3h24c3.12,0,3.81,1.59,4.66,3L703.07,685h24.12a9,9,0,0,1,8.94,8.93V755a9,9,0,0,1-8.94,8.93H633.26a9,9,0,0,1-8.94-8.93V693.93A9,9,0,0,1,633.26,685Z" transform="translate(-550.03 -216.03)"/></g><g id="Group_1419" data-name="Group 1419"><path id="Path_1307" data-name="Path 1307" class="cls-21" d="M680.23,750.32A22.31,22.31,0,1,0,657.91,728h0A22.36,22.36,0,0,0,680.23,750.32Z" transform="translate(-550.03 -216.03)"/></g></g><g id="Group_1421" data-name="Group 1421"><path id="Path_1308" data-name="Path 1308" class="cls-14" d="M557.61,394.58a23.51,23.51,0,0,1,34.86,31.21l10.65,11.61a3.27,3.27,0,0,1-.2,4.6L601,443.79a3.26,3.26,0,0,1-4.6-.2L585.72,432a23.51,23.51,0,0,1-28.1-37.4Zm6,6.57a14.58,14.58,0,1,0,20.6.89,14.59,14.59,0,0,0-20.6-.89Z" transform="translate(-550.03 -216.03)"/></g></g></g></svg>